<?xml version="1.0" encoding="utf-8"?>
<!-- Generator: Adobe Illustrator 16.0.0, SVG Export Plug-In . SVG Version: 6.00 Build 0)  -->
<!DOCTYPE svg PUBLIC "-//W3C//DTD SVG 1.1//EN" "http://www.w3.org/Graphics/SVG/1.1/DTD/svg11.dtd">
<svg version="1.1" id="Layer_1" xmlns="http://www.w3.org/2000/svg" xmlns:xlink="http://www.w3.org/1999/xlink" x="0px" y="0px"
	 width="329.048px" height="217.23px" viewBox="0 0 329.048 217.23" enable-background="new 0 0 329.048 217.23"
	 xml:space="preserve">
<g>
	<path fill="#FFFFFF" d="M7.971,75.242c2.355-1.482,5.132-2.37,8.036-2.983c5.067-1.072,10.134-2.108,15.188-3.245l10.381-19.505
		c5.033-10.067,9.123-20.763,13.842-30.83c2.202-4.719,4.404-8.809,7.236-12.269c2.202-2.202,2.831-2.517,5.033-4.09
		c1.258-0.944,2.202-0.629,3.46-1.573c4.719-1.573,9.124-0.629,13.213,2.517c3.46,2.517,3.146,4.719,5.348,8.179l1.258,5.034
		c0.944,6.606,0.629,13.213,0.629,19.819c0,6.292-0.315,12.583-0.315,18.875v3.775c3.775,1.573,5.978,3.775,6.921,8.809
		c0.314,2.202-0.315,4.404-1.888,7.235c-0.944,2.202-3.46,3.775-5.663,4.719c-0.314,13.528-0.629,26.425-0.314,39.953
		c0,4.719,0,8.809,0.314,13.527c0.314,14.786,1.888,29.572,4.719,44.043c1.258,7.236,1.573,8.494,3.775,15.101
		c1.259,5.034,2.832,8.809,5.034,13.527c3.46,11.64-12.269,16.044-15.729,5.034l-1.258-6.293c-0.944-3.46-1.258-6.92-1.573-9.752
		c-0.943-6.606-0.943-9.123-1.573-16.358c-1.258-15.101-0.944-30.2-0.944-45.302c0-16.043,0.314-32.402-0.629-48.446
		c-4.719,2.831-9.438,5.348-14.157,8.809c-6.606,4.719-12.583,8.493-19.819,12.583l-9.438,6.607
		c-6.921,4.719-13.213,10.066-18.561,16.043c-4.089,4.72-8.494,11.955-17.302,3.461c-5.978-5.662-2.202-10.066,0.314-13.842
		c5.977-8.494,10.381-16.988,15.1-25.796c-0.314,0.314-0.943,0.944-1.887,1.258c-4.186,1.395-8.72,2.156-12.047-1.402
		c-2.913-3.114-3.686-7.704-1.83-11.539C4.074,78.392,5.852,76.576,7.971,75.242z M31.196,97.956l-1.258,3.46l0.943-0.629
		c9.438-6.292,19.19-12.583,28.628-19.504l2.202-1.573c-5.977,1.259-11.64,2.832-17.617,4.404c-2.831,0.629-5.033,1.258-7.235,2.202
		C34.656,90.091,33.398,94.181,31.196,97.956z M47.869,65.238l19.819-4.404l12.898-2.517l-0.314-2.831
		c-0.944-7.865-0.944-10.382-2.202-18.247c-0.944-5.348-1.573-11.01-3.775-16.044c-1.573,1.573-3.146,4.09-4.089,5.663
		c-6.292,9.752-11.326,19.819-16.988,29.257L47.869,65.238z"/>
	<path fill="#FFFFFF" d="M113.305,36.296c9.123-9.124,22.336,4.089,12.898,13.527l-0.629,0.944
		c-0.314,0.943-0.629,1.258-0.629,1.258c-7.55,11.954-24.223,0.944-16.988-10.696C109.53,39.127,111.103,37.869,113.305,36.296z
		 M124.944,98.271c-0.314,6.292-0.314,12.583,0.944,18.562c0,0.629,0.315,1.572,0.629,2.83c2.517,12.584-16.044,15.73-16.988,3.461
		l-0.629-2.517c-0.314-1.573-0.314-3.46-0.314-5.663c-0.944-5.977-0.314-11.639-0.314-17.617c0-1.573,0.314-6.921,0.314-8.18
		c0-2.831,0.314-5.663-0.314-8.494c0-0.944-0.315-0.314-0.315-1.258c0-13.842,19.819-13.842,19.819,0
		C126.203,85.687,125.574,91.979,124.944,98.271z"/>
	<path fill="#FFFFFF" d="M175.278,66.812l4.404,0.944c2.517,0.944,5.033,0.944,7.235,1.887c3.775,1.573,5.348,2.202,8.809,4.719
		c4.719,3.775,7.865,8.494,9.123,13.842c0.944,2.202,0.629,3.46,0.629,5.663s0.629,3.774-0.629,5.978
		c-0.944,8.494-5.977,15.414-11.325,21.393l-4.719,4.403c-3.775,3.461-5.348,4.72-10.067,6.921
		c-5.348,2.832-11.011,4.404-16.988,4.404l-5.348-0.943c-4.719-2.202-5.663-1.888-9.438-5.348
		c-5.977-5.978-7.865-11.955-9.123-19.505c0-2.202-0.314-3.775-0.314-5.978c0-8.494,0.944-16.988,2.831-24.853
		c0.944-1.573,0.629-2.517,1.573-3.775c1.573-3.775,4.089-7.236,6.606-10.696c7.235-5.977,15.415-1.258,16.988,5.348
		C167.099,67.755,170.559,65.868,175.278,66.812z M161.436,81.283c-2.202,0.944-3.775,3.46-4.719,5.663
		c-2.517,5.977-3.775,11.955-3.46,18.246c0,1.573,0,3.146,0.314,4.09c0.944,4.719,2.517,7.865,7.236,10.066
		c0.944,0,1.258,0,1.573,0.314c5.034,0.944,9.752-1.258,13.527-3.774l3.46-2.517c1.573-1.573,2.517-2.518,3.46-3.146
		c3.46-3.775,6.292-9.123,6.606-14.156c0-0.944-0.314-1.888-0.314-2.831l-0.629-2.202c-1.573-3.461-5.033-4.719-7.865-5.663
		c-2.831-0.943-5.348-0.943-8.179-1.258c-4.09-0.629-6.921-2.831-7.865-6.292c-0.629,1.573-1.573,2.517-2.831,3.46H161.436z"/>
	<path fill="#FFFFFF" d="M213.625,68.223c0.675-0.39,1.359-0.752,2.016-1.1c3.536-1.877,6.782-3.443,10.599-4.715
		c6.606-2.202,13.842-3.775,20.134,0c1.572,0.944,2.517,2.517,3.775,3.775l2.831,4.404c2.202,4.719,2.517,10.067,3.146,15.101
		l1.258,10.696c0,1.573,0,2.518,0.315,3.146c2.517-2.832,5.033-5.978,7.864-8.494c3.461-2.832,4.09-3.146,7.865-5.663
		c1.572-0.314,2.831-1.258,4.404-1.573c5.977-1.888,11.64-0.629,16.358,3.46c2.831,2.517,4.09,5.663,5.663,9.123
		c2.831,5.978,4.719,14.156,9.752,18.875c0.943,0.944,0.943,0.63,1.888,0.944h0.944h0.943c2.831-0.314,0.629,0.314,4.404-0.944
		c11.01-3.46,16.044,12.27,5.348,15.416l-2.202,0.943c-1.259,0.314-3.146,0.943-4.089,0.943c-4.09,0.944-7.865,0.944-11.955-0.629
		c-2.202-0.943-3.461-1.888-5.033-2.831l-3.775-3.775l-2.831-4.404c-3.471-5.048-5.772-11.407-7.795-17.121
		c-2.306-6.513-7.903-1.774-11.051,1.446c-2.312,2.365-6.206,6.202-7.266,9.383c-0.314,0.944-2.517,5.348-3.46,6.292
		c-0.944,0.944-1.259,2.202-2.518,3.146c-1.572,1.259-3.46,3.146-5.662,3.461c-8.809,0.943-8.809-1.888-12.27-7.235
		c-0.314-1.259-0.629-2.202-0.629-3.146v-5.978c0-4.72-0.314-9.124-0.943-13.528c-0.673-4.713-0.63-23.14-9.986-18.967
		c-2.638,1.177-5.212,2.824-7.002,5.125c-1.215,1.563-6.302,2.069-8.109,1.754c-2.538-0.442-4.587-2.255-6.074-4.272
		c-1.49-2.021-2.601-4.515-2.104-7.068C208.934,71.364,211.224,69.61,213.625,68.223z"/>
</g>
</svg>
