<?xml version="1.0" encoding="utf-8"?>
<!-- Generator: Adobe Illustrator 16.0.3, SVG Export Plug-In . SVG Version: 6.00 Build 0)  -->
<!DOCTYPE svg PUBLIC "-//W3C//DTD SVG 1.1//EN" "http://www.w3.org/Graphics/SVG/1.1/DTD/svg11.dtd">
<svg version="1.1" id="Layer_1" xmlns="http://www.w3.org/2000/svg" xmlns:xlink="http://www.w3.org/1999/xlink" x="0px" y="0px"
	 width="260px" height="170px" viewBox="0 0 260 170" enable-background="new 0 0 260 170" xml:space="preserve">
<g>
	<path fill="#FFFFFF" d="M133.34,62.875c-0.314-2.149-1.658-4.055-3.574-5.071c-2.251-1.195-20.347,1.081-24.032,1.557
		c1.923-11.381,10.528-47.003,11.151-49.485c0.689-2.749,1.675-5.865-0.692-7.786c-4.182-3.392-9.204-2.142-11.267,0.136
		C94.468,13.772,66.774,50.833,58.568,65.587c-25.002,3.211-51.634,7.571-54,8.583c-4.519,1.931-6.019,6.809-2.98,10.673
		c2.353,2.994,6.672,3.709,9.937,1.75c6.628-3.977,21.916-11.263,43.616-15.071c-6.566,11.23-24.96,47.45-28.514,56.412
		c-1.708,4.307,0.203,8.802,2.406,9.963c1.991,1.049,6.33,1.509,9.012-2.152c20.333-27.751,44.393-47.852,54.505-53.2
		c-2.65,19.506-5.934,69.671-3.029,80.353c0.798,2.935,2.893,5.869,5.927,6.846c3.047,0.981,5.789-0.979,6.996-3.759
		c1.214-2.796,0.432-6.29-1.329-9.189c-3.389-5.584-3.891-49.303,2.728-80.545c6.665-3.683,13.181-5.944,22.392-5.395
		C131.43,71.166,133.668,65.115,133.34,62.875z M101.486,22.064c-0.705,4.578-5.514,32.287-6.222,38.726
		c-3.712,0.314-17.875,2.209-25.031,3.193C77.426,52.215,91.744,32.361,101.486,22.064z M41.586,119.804
		c4.759-13.028,19.298-41.207,25.592-50.89c8.367-1.749,21.662-2.946,27.468-3.036c-0.429,1.915-0.68,4.427-1.072,6.479
		C77.927,83.749,51.361,108.498,41.586,119.804z"/>
	<path fill="#FFFFFF" d="M151.608,68.589c-3.887,9.925-4.311,27.552-4.688,33.672c-0.234,3.786,0.449,8.436-2.805,11.148
		c-3.582,2.988-9.201,1.612-11.014-2.688c-0.734-1.741-0.609-3.474-0.17-5.251c2.006-8.112,5.432-29.721,5.145-34.881
		c-0.115-2.071-0.777-4.211-0.586-6.269c0.449-4.826,5.486-8.043,10.039-6.396C151.784,59.465,153.749,64.578,151.608,68.589z"/>
	<path fill="#FFFFFF" d="M154.913,44.678c-1.387,4.163-5.58,7.538-9.365,7.538c-3.783,0-5.727-3.375-4.34-7.538
		c1.389-4.163,5.582-7.538,9.365-7.538C154.358,37.14,156.301,40.515,154.913,44.678z"/>
	<path fill="#FFFFFF" d="M182.729,53.607c5.152-0.363,10.199,0.746,14.387,3.889c4.52,3.393,7.326,8.595,8.238,14.132
		c1.74,10.544-2.924,21.212-9.871,29.022c-7.578,8.517-22.699,13.709-31.938,7.988c-9.744-6.035-8.727-20.41-5.059-29.707
		c2.096-5.311,5.098-10.442,9.402-14.257c2.854-2.527,6.27-5.036,10.266-3.665c4.451,1.528,6.412,6.956,3.992,10.992
		c-1.281,2.135-3.572,3.487-6.047,3.631c-2.32,0.135-4.438,1.515-6.084,3.064c-6.756,6.35-8.928,15.813-6.559,21.513
		c1.07,2.576,3.463,4.101,6.156,4.622c12.346,2.395,21.389-10.899,23.514-21.534c2.129-10.647-2.635-15.17-6.527-15.656
		c-1.582-0.197-3.148,0.196-4.717-0.11c-3.453-0.673-5.918-3.929-5.654-7.442C176.487,56.641,179.305,53.872,182.729,53.607z"/>
	<path fill="#FFFFFF" d="M254.1,63.755c-5.123-5.089-12.279-5.712-19.164-4.949c-3.17,0.327-6.328,0.994-9.41,1.858
		c0.164-0.478,0.328-0.955,0.533-1.416c2.018-4.392-0.613-9.671-5.281-10.66c-4.617-0.979-9.094,2.731-9.059,7.5
		c0.008,0.961,0.271,1.836,0.48,2.759c0.25,1.098,0.389,2.226,0.477,3.348c0.225,2.96-0.1,5.898-0.297,8.849
		c-0.438,6.313-1.059,12.622-1.836,18.899c-0.313,2.512-0.645,5.021-1.047,7.52c-0.293,1.823-0.367,3.566,0.465,5.278
		c2.053,4.226,7.74,5.29,11.146,2.076c3.096-2.92,2.154-7.562,2.172-11.389c0.029-6.185,0.047-17.092,0.65-20.516
		c2.07-2.606,6.42-4.872,8.988-5.617c4.016-1.166,9.834-1.961,13.375,0.88c5.295,4.509,4.924,11.818,4.293,18.179
		c-0.701,7.088-2.438,14.132-4.525,20.928c-0.666,2.161-1.914,4.578-1.68,6.893c0.268,2.633,2.131,4.912,4.652,5.695
		c2.686,0.834,5.68-0.162,7.34-2.433c1.354-1.848,1.248-3.853,1.26-6.005c0.037-8.102,1.119-16.186,1.982-24.228
		C260.493,79.015,260.327,69.942,254.1,63.755z M246.352,68.217c0.004,0.004,0.008,0.006,0.014,0.01
		C246.393,68.25,246.377,68.237,246.352,68.217z"/>
</g>
</svg>